<svg xmlns="http://www.w3.org/2000/svg" width="154" height="77" viewBox="0 0 154 77" fill="none">
  <mask id="mask0_22_417" style="mask-type:alpha" maskUnits="userSpaceOnUse" x="0" y="0" width="154" height="77">
    <path d="M0 12.32C0 5.51585 5.51585 0 12.32 0H141.68C148.484 0 154 5.51585 154 12.32V64.68C154 71.4841 148.484 77 141.68 77H12.32C5.51586 77 0 71.4841 0 64.68V12.32Z" fill="url(#paint0_linear_22_417)"/>
  </mask>
  <g mask="url(#mask0_22_417)">
    <path d="M95.7534 27.2236C110.789 12.1884 135.165 12.1884 150.201 27.2236L204.648 81.6708C219.683 96.706 219.683 121.083 204.648 136.118C189.613 151.153 165.236 151.153 150.201 136.118L95.7534 81.6708C80.7183 66.6356 80.7183 42.2588 95.7534 27.2236Z" fill="#DAAAFF"/>
    <path d="M93.1699 22.33C93.1699 1.06699 110.407 -16.17 131.67 -16.17L208.67 -16.17C229.933 -16.17 247.17 1.06699 247.17 22.33C247.17 43.5929 229.933 60.83 208.67 60.83H131.67C110.407 60.83 93.1699 43.5929 93.1699 22.33Z" fill="white" fill-opacity="0.3"/>
    <path fill-rule="evenodd" clip-rule="evenodd" d="M88.2074 -71.5822L65.3125 1.93528C59.1167 21.8306 70.2223 42.9815 90.1176 49.1773C110.013 55.3731 131.164 44.2675 137.36 24.3723L160.255 -49.1453C166.45 -69.0405 155.345 -90.1915 135.449 -96.3873C115.554 -102.583 94.4032 -91.4775 88.2074 -71.5822ZM64.5773 1.70633C58.2551 22.0076 69.5873 43.5903 89.8886 49.9125C110.19 56.2348 131.773 44.9025 138.095 24.6012L160.99 -48.9163C167.312 -69.2176 155.98 -90.8003 135.678 -97.1225C115.377 -103.445 93.7944 -92.1125 87.4722 -71.8112L64.5773 1.70633Z" fill="white" fill-opacity="0.3"/>
  </g>
  <defs>
    <linearGradient id="paint0_linear_22_417" x1="0" y1="0" x2="61.6" y2="123.2" gradientUnits="userSpaceOnUse">
      <stop stop-color="#EE9AE5"/>
      <stop offset="1" stop-color="#5961F9"/>
    </linearGradient>
  </defs>
</svg>