<svg xmlns="http://www.w3.org/2000/svg" width="19" height="20" viewBox="0 0 19 20" fill="none">
  <path fill-rule="evenodd" clip-rule="evenodd" d="M9.71022 4.01944C9.55706 3.84701 9.28769 3.84701 9.13453 4.01944L4.17996 9.59746C3.9594 9.84578 4.13567 10.2381 4.46781 10.2381H6.34248C6.55511 10.2381 6.72748 10.4105 6.72748 10.6231V15.4357C6.72748 15.6483 6.89985 15.8207 7.11248 15.8207H11.7325C11.9451 15.8207 12.1175 15.6483 12.1175 15.4357V10.6231C12.1175 10.4105 12.2898 10.2381 12.5025 10.2381H14.3769C14.7091 10.2381 14.8854 9.84578 14.6648 9.59746L9.71022 4.01944L9.99807 3.76377L9.71022 4.01944ZM8.55883 3.50809C9.01832 2.99079 9.82643 2.99079 10.2859 3.50809L15.2405 9.08611C15.9022 9.83107 15.3733 11.0081 14.3769 11.0081H12.8875V15.4357C12.8875 16.0736 12.3704 16.5907 11.7325 16.5907H7.11248C6.47459 16.5907 5.95748 16.0736 5.95748 15.4357V11.0081H4.46781C3.47142 11.0081 2.94257 9.83107 3.60427 9.08611L8.55883 3.50809Z" fill="white"/>
</svg>